<svg width="24" height="24" viewBox="0 0 24 24" fill="none" xmlns="http://www.w3.org/2000/svg">
<path d="M16.7993 6.60036L15.9943 3.59316L15.9271 3.37336L15.8473 3.16056C15.5223 2.37602 14.9232 1.73639 14.1615 1.36085C13.3999 0.985314 12.5277 0.899487 11.7075 1.11936L3.59448 3.29356L3.37328 3.35936C2.53224 3.64534 1.8314 4.24042 1.41285 5.02397C0.994297 5.80752 0.889349 6.7209 1.11928 7.57896L3.29348 15.6934L3.36628 15.9314C3.60015 16.6073 4.03548 17.1953 4.61369 17.6164C5.19189 18.0374 5.8852 18.2711 6.60028 18.2862M19.9003 8.00036C20.7886 8.00058 21.6437 8.3386 22.2921 8.9459C22.9404 9.55319 23.3336 10.3843 23.3919 11.2708L23.4003 11.5004V19.9004C23.4001 20.7887 23.062 21.6438 22.4547 22.2921C21.8475 22.9405 21.0163 23.3337 20.1299 23.392L19.9003 23.4004H11.5003C10.6117 23.4005 9.75628 23.0626 9.10762 22.4553C8.45895 21.848 8.06557 21.0167 8.00728 20.13L8.00028 19.9004V11.5004C8.00014 10.6118 8.338 9.75637 8.94533 9.1077C9.55266 8.45903 10.384 8.06566 11.2707 8.00736L11.5003 8.00036H19.9003Z" stroke="white"/>
</svg>
