<svg width="22" height="25" viewBox="0 0 22 25" fill="none" xmlns="http://www.w3.org/2000/svg">
<path d="M12.6969 23.271L19.0018 19.5302C19.6762 19.1303 20.0122 18.9309 20.257 18.652C20.4736 18.4049 20.6372 18.1138 20.7374 17.7975C20.8494 17.4403 20.8494 17.0415 20.8494 16.2464V8.753C20.8494 7.95785 20.8494 7.55909 20.7362 7.20186C20.6361 6.88559 20.4724 6.59447 20.2558 6.34737C20.0133 6.06967 19.6785 5.87028 19.0099 5.4739L12.6969 1.72838C12.0237 1.32844 11.6877 1.12905 11.3297 1.05191C11.013 0.982696 10.6857 0.982696 10.369 1.05191C10.011 1.12905 9.675 1.32844 9.00179 1.72838L2.69463 5.47034C2.02258 5.8691 1.68655 6.06848 1.4429 6.34737C1.2263 6.59447 1.06264 6.88559 0.962529 7.20186C0.849365 7.56027 0.849365 7.95904 0.849365 8.75775V16.2405C0.849365 17.0392 0.849365 17.4391 0.962529 17.7963C1.06264 18.1126 1.2263 18.4037 1.4429 18.6508C1.68655 18.9309 2.02373 19.1303 2.69579 19.5291L9.00064 23.271C9.675 23.671 10.011 23.8703 10.369 23.9475C10.6854 24.0175 11.0133 24.0175 11.3297 23.9475C11.6877 23.8703 12.0237 23.671 12.6969 23.271Z" stroke="white" stroke-linecap="round" stroke-linejoin="round"/>
<path d="M7.38513 12.4997C7.38513 13.444 7.75011 14.3496 8.39977 15.0173C9.04944 15.685 9.93057 16.0601 10.8493 16.0601C11.7681 16.0601 12.6492 15.685 13.2989 15.0173C13.9486 14.3496 14.3135 13.444 14.3135 12.4997C14.3135 11.5554 13.9486 10.6498 13.2989 9.98214C12.6492 9.31444 11.7681 8.93933 10.8493 8.93933C9.93057 8.93933 9.04944 9.31444 8.39977 9.98214C7.75011 10.6498 7.38513 11.5554 7.38513 12.4997Z" stroke="white" stroke-linecap="round" stroke-linejoin="round"/>
</svg>
