<svg width="14" height="17" viewBox="0 0 20 23" fill="none" xmlns="http://www.w3.org/2000/svg">
<path d="M9.90125 0.5C10.9596 0.5 11.9751 0.920577 12.7235 1.66895C13.4716 2.41722 13.8914 3.43211 13.8915 4.49023V4.99023H16.6766C17.0723 4.99021 17.4543 5.12516 17.7616 5.36914L17.8885 5.47949C18.1733 5.75429 18.3554 6.11681 18.4071 6.50586L18.4208 6.67383L18.9012 20.1455C18.9075 20.321 18.8876 20.4962 18.8417 20.665L18.787 20.832C18.7241 20.9962 18.6366 21.1495 18.5282 21.2871L18.413 21.4189C18.291 21.5454 18.1513 21.653 17.9979 21.7373L17.8397 21.8135C17.6241 21.9051 17.3923 21.952 17.1581 21.9521H2.64441L2.4696 21.9434C2.35364 21.9316 2.23912 21.9086 2.12781 21.874L1.96277 21.8135C1.80109 21.7447 1.651 21.6522 1.51746 21.5391L1.38953 21.4189C1.26751 21.2925 1.16553 21.1486 1.08679 20.9922L1.0155 20.832C0.952563 20.6678 0.915516 20.4952 0.904175 20.3203L0.901245 20.1455L1.38171 6.67383C1.39576 6.27829 1.54383 5.90104 1.79871 5.60254L1.91394 5.47949C2.19868 5.20477 2.56732 5.03682 2.95789 4.99902L3.12585 4.99023H5.86707V5.4502H13.6718V4.4502H5.91199C5.92253 3.40642 6.3411 2.4078 7.07996 1.66895C7.82828 0.920656 8.84298 0.500038 9.90125 0.5Z" stroke="white"/>
</svg>
